Coordinates
version=1
nRows=60
nColumns=12
inDegrees=yes

Units are S.I. units (second, meters, Newtons, ...)
Angles are in degrees

endheader
time	SC_y	SC_z	SC_x	AC_y	AC_z	AC_x	GH_y	GH_z	GH_yy	EL_x	PS_y
       0.0              -14.22         -1.462           28.2          38.68         -1.968          2.394         -178.5          16.46         -130.4          20.55          122.0
  0.004657              -14.22         -1.457          28.19          38.68         -1.968          2.393         -178.5          16.47         -130.4          20.56          122.0
  0.009314              -14.22         -1.452          28.19          38.68         -1.968          2.392         -178.5          16.48         -130.4          20.57          122.0
   0.01397              -14.23         -1.446          28.19          38.68         -1.968           2.39         -178.4          16.49         -130.3          20.58          122.0
   0.01863              -14.23          -1.44          28.18          38.68         -1.968          2.388         -178.4          16.49         -130.3           20.6          122.0
   0.02328              -14.23         -1.433          28.18          38.68         -1.968          2.387         -178.4           16.5         -130.3          20.61          121.9
   0.02794              -14.23         -1.426          28.17          38.69         -1.968          2.385         -178.4          16.51         -130.2          20.63          121.9
    0.0326              -14.23         -1.419          28.16          38.69         -1.968          2.383         -178.4          16.52         -130.2          20.65          121.9
   0.03725              -14.23         -1.411          28.16          38.69         -1.968          2.381         -178.4          16.53         -130.1          20.67          121.9
   0.04191              -14.24         -1.402          28.15          38.69         -1.968          2.379         -178.4          16.54         -130.1          20.69          121.9
   0.04657              -14.24         -1.393          28.14          38.69         -1.969          2.376         -178.4          16.56         -130.0          20.71          121.9
   0.05122              -14.24         -1.383          28.14          38.69         -1.969          2.374         -178.4          16.57         -130.0          20.73          121.9
   0.05588              -14.24         -1.373          28.13           38.7         -1.969          2.371         -178.4          16.59         -129.9          20.76          121.9
   0.06054              -14.25         -1.361          28.12           38.7         -1.969          2.368         -178.3           16.6         -129.8          20.79          121.9
   0.06519              -14.25         -1.349          28.11           38.7         -1.969          2.365         -178.3          16.62         -129.8          20.82          121.8
   0.06985              -14.25         -1.335           28.1           38.7         -1.969          2.361         -178.3          16.64         -129.7          20.85          121.8
   0.07451              -14.25          -1.32          28.09          38.71         -1.969          2.357         -178.3          16.66         -129.6          20.88          121.8
   0.07916              -14.26         -1.304          28.08          38.71         -1.969          2.353         -178.3          16.68         -129.5          20.92          121.8
   0.08382              -14.26         -1.287          28.06          38.71          -1.97          2.349         -178.2           16.7         -129.4          20.96          121.8
   0.08848              -14.27         -1.268          28.05          38.72          -1.97          2.344         -178.2          16.73         -129.3          21.01          121.7
   0.09314              -14.27         -1.247          28.03          38.72          -1.97          2.338         -178.2          16.76         -129.1          21.06          121.7
   0.09779              -14.28         -1.224          28.01          38.73          -1.97          2.332         -178.2          16.79         -129.0          21.11          121.7
    0.1024              -14.28         -1.198           28.0          38.73          -1.97          2.325         -178.1          16.82         -128.8          21.17          121.6
    0.1071              -14.29          -1.17          27.97          38.74         -1.971          2.318         -178.1          16.86         -128.7          21.24          121.6
    0.1118               -14.3         -1.138          27.95          38.74         -1.971           2.31         -178.1           16.9         -128.5          21.31          121.6
    0.1164              -14.31         -1.103          27.92          38.75         -1.971          2.301         -178.0          16.95         -128.3           21.4          121.5
    0.1211              -14.31         -1.064          27.89          38.76         -1.972           2.29         -178.0           17.0         -128.0          21.49          121.5
    0.1257              -14.32          -1.02          27.86          38.76         -1.972          2.279         -177.9          17.06         -127.8           21.6          121.4
    0.1304              -14.34        -0.9698          27.82          38.77         -1.973          2.266         -177.8          17.13         -127.5          21.71          121.4
     0.135              -14.35         -0.913          27.78          38.79         -1.973          2.251         -177.8          17.21         -127.1          21.85          121.3
    0.1397              -14.36        -0.8483          27.73           38.8         -1.974          2.234         -177.7           17.3         -126.7           22.0          121.2
    0.1444              -14.38         -0.774          27.67          38.81         -1.975          2.215         -177.6           17.4         -126.3          22.18          121.1
     0.149               -14.4        -0.6881           27.6          38.83         -1.976          2.192         -177.5          17.51         -125.8          22.38          121.0
    0.1537              -14.43        -0.5884          27.53          38.85         -1.977          2.166         -177.3          17.65         -125.1          22.62          120.9
    0.1583              -14.45        -0.4718          27.44          38.87         -1.978          2.136         -177.2          17.81         -124.4           22.9          120.7
     0.163              -14.48        -0.3343          27.33           38.9         -1.979            2.1         -177.0          17.99         -123.6          23.22          120.6
    0.1676              -14.52        -0.1708          27.21          38.93         -1.981          2.057         -176.8          18.21         -122.6          23.61          120.3
    0.1723              -14.57        0.02505          27.06          38.97         -1.983          2.006         -176.5          18.48         -121.4          24.07          120.1
     0.177              -14.62          0.262          26.87          39.01         -1.985          1.945         -176.2           18.8         -120.0          24.64          119.8
    0.1816              -14.69         0.5516          26.65          39.07         -1.988          1.869         -175.9          19.19         -118.2          25.32          119.4
    0.1863              -14.77         0.9089          26.38          39.14         -1.991          1.776         -175.4          19.67         -116.1          26.17          119.0
    0.1909              -14.88          1.354          26.04          39.22         -1.996           1.66         -174.8          20.28         -113.4          27.23          118.4
    0.1956              -15.01          1.916          25.61          39.33         -2.001          1.513         -174.1          21.04         -110.0          28.56          117.7
    0.2002              -15.18          2.629          25.06          39.47         -2.008          1.327         -173.2           22.0         -105.6          30.25          116.8
    0.2049              -15.39          3.543          24.36          39.64         -2.017          1.089         -172.0          23.24         -100.1          32.42          115.6
    0.2096              -15.66          4.715          23.46          39.87         -2.029         0.7832         -170.5          24.83         -92.98           35.2          114.2
    0.2142              -16.01          6.212          22.31          40.16         -2.044         0.3927         -168.5          26.86          -83.9          38.75          112.3
    0.2189              -16.45          8.094          20.87          40.52         -2.062       -0.09828         -166.1          29.41         -72.48          43.22          109.9
    0.2235              -16.98          10.39          19.11          40.96         -2.085        -0.6966         -163.1          32.51         -58.56          48.66          107.0
    0.2282               -17.6          13.05          17.06          41.48         -2.111          -1.39         -159.6          36.11         -42.43          54.96          103.6
    0.2328              -18.27          15.93          14.86          42.03          -2.14         -2.141         -155.9          40.01         -24.97          61.79          99.95
    0.2375              -18.95          18.81          12.65          42.59         -2.168         -2.892         -152.2          43.91         -7.501          68.62           96.3
    0.2422              -19.57          21.46          10.61           43.1         -2.195         -3.586         -148.7          47.51          8.629          74.93          92.93
    0.2468               -20.1          23.76          8.846          43.54         -2.217         -4.184         -145.8          50.62          22.54          80.37          90.02
    0.2515              -20.54          25.64          7.402           43.9         -2.236         -4.675         -143.3          53.17          33.96          84.84          87.64
    0.2561              -20.89          27.14          6.253          44.19         -2.251         -5.065         -141.4           55.2          43.04          88.39          85.74
    0.2608              -21.16          28.31          5.354          44.42         -2.262         -5.371         -139.9          56.78          50.15          91.17          84.25
    0.2654              -21.37          29.22          4.653          44.59         -2.271         -5.609         -138.7          58.02          55.69          93.34           83.1
    0.2701              -21.54          29.94          4.105          44.73         -2.278         -5.795         -137.7          58.99          60.02          95.03          82.19
    0.2747              -21.67           30.5          3.675          44.84         -2.284         -5.942         -137.0          59.75          63.43          96.36          81.48
